<svg width="313" height="100" viewBox="0 0 313 100" fill="none" xmlns="http://www.w3.org/2000/svg">
<g clip-path="url(#clip0)">
<path d="M119.139 61.2213V76.9261H110.288V27.4487H130.331C136.769 27.4487 141.363 29.2338 144.347 32.1637C147.33 35.0936 148.769 39.2325 148.769 44.0722C148.769 48.9121 147.33 53.0576 144.346 55.9939C141.362 58.9301 136.768 60.7213 130.331 60.7213H119.639H119.139V61.2213ZM119.639 35.6357H119.139V36.1357V52.1108V52.6108H119.639H130.483C133.836 52.6108 136.184 51.7401 137.688 50.1803C139.188 48.6239 139.765 46.4671 139.765 44.0722C139.765 41.6772 139.188 39.5437 137.684 38.012C136.179 36.4787 133.832 35.6357 130.483 35.6357H119.639Z" fill="#000E33" stroke="#000E33"/>
<path d="M192.095 58.6438V76.875H184.72V69.8978L183.758 69.7079C181.531 75.1299 176.594 77.8958 170.78 77.8958H170.778C161.774 77.9207 152.315 71.4705 152.315 58.7459C152.315 52.8049 154.39 47.8203 157.914 44.3218C161.438 40.8228 166.443 38.7793 172.358 38.7793C178.212 38.7793 183.139 40.7606 186.6 44.2125C190.062 47.664 192.095 52.6221 192.095 58.6438ZM183.982 58.3886C183.982 54.9079 182.823 51.9007 180.762 49.7607C178.699 47.6188 175.765 46.3793 172.282 46.3793C168.798 46.3793 165.864 47.6188 163.801 49.7607C161.74 51.9007 160.581 54.9079 160.581 58.3886C160.581 61.8708 161.754 64.8778 163.821 67.0171C165.889 69.1579 168.823 70.3978 172.282 70.3978C175.742 70.3978 178.675 69.1441 180.743 66.9974C182.809 64.8524 183.982 61.8461 183.982 58.3886Z" fill="#000E33" stroke="#000E33"/>
<path d="M200.478 58.6693V39.8H208.617V58.6693C208.617 62.3779 209.601 65.1966 211.398 67.0903C213.198 68.9872 215.749 69.8874 218.739 69.8874C221.661 69.8874 224.208 68.9437 226.022 67.033C227.834 65.1245 228.861 62.3091 228.861 58.6693V39.8H237.025V76.1245C237.025 82.6486 234.964 87.1491 231.678 90.0264C228.38 92.9139 223.778 94.2281 218.586 94.2281C214.231 94.2154 210.287 93.1989 207.181 91.1135C204.229 89.1322 202.006 86.168 200.901 82.1112H209.1C209.912 83.8232 211.078 85.1011 212.616 85.9559C214.234 86.8551 216.228 87.2661 218.586 87.2661C221.776 87.2661 224.373 86.5026 226.167 84.6974C227.96 82.893 228.861 80.1381 228.861 76.3542V71.5565V69.631L227.924 71.3133C225.702 75.3033 221.88 77.4619 217.059 77.4619C212.774 77.4619 208.638 76.0684 205.576 73.0506C202.518 70.0369 200.478 65.3524 200.478 58.6693Z" fill="#000E33" stroke="#000E33"/>
<path d="M248.512 27.4487H257.389V76.9261H248.512V27.4487Z" fill="#000E33" stroke="#000E33"/>
<path d="M278.126 35.6357H277.626V36.1357V68.3412V68.8428L278.128 68.8412L286.119 68.8157C286.119 68.8157 286.119 68.8157 286.12 68.8157C292.024 68.8156 296.383 67.2079 299.264 64.2768C302.143 61.3475 303.471 57.1716 303.471 52.1874C303.471 47.2031 302.143 43.0456 299.263 40.1351C296.382 37.2234 292.022 35.6357 286.119 35.6357H278.126ZM268.75 27.4487H286.119C294.832 27.4487 301.414 29.9463 305.816 34.2507C310.217 38.5544 312.5 44.7234 312.5 52.1874C312.5 59.6518 310.223 65.8207 305.825 70.1242C301.426 74.4284 294.845 76.9261 286.119 76.9261H268.75V27.4487Z" fill="#000E33" stroke="#000E33"/>
</g>
<path d="M53.4941 79.5042C60.2492 78.6066 66.5054 75.4612 71.2549 70.5747L98.9077 42.2316C97.1475 41.9431 95.3653 41.8096 93.5817 41.8326C88.7234 41.8619 83.9439 43.0633 79.6492 45.3347C76.941 46.7812 74.4726 48.6375 72.3315 50.8381L62.1323 61.2874C62.0721 61.3539 62.0056 61.4204 61.9391 61.4901C58.7335 64.7772 54.3609 66.6677 49.7703 66.7512C45.1796 66.8348 40.7411 65.1048 37.4179 61.9366L48.07 72.3289C50.2309 74.4323 52.0598 76.8516 53.4941 79.5042Z" fill="url(#paint0_linear)"/>
<path d="M28.3327 71.2462L56.6789 98.899C57.7602 92.2556 56.6416 85.4409 53.4935 79.4917C52.0595 76.8416 50.2317 74.4244 48.0725 72.3228L37.4204 61.9304C35.7487 60.3394 34.4094 58.4323 33.4803 56.3198C32.5511 54.2073 32.0505 51.9314 32.0075 49.6239C31.9645 47.3165 32.3799 45.0235 33.2297 42.8778C34.0796 40.7321 35.3469 38.7765 36.9581 37.1243L26.5721 47.7731C24.4315 49.9734 21.963 51.8288 19.2544 53.2733C20.1454 60.1233 23.3481 66.4639 28.3327 71.2462Z" fill="url(#paint1_linear)"/>
<path d="M-0.000408173 56.3948C1.75905 56.6807 3.54004 56.8132 5.32243 56.7906C10.1808 56.759 14.96 55.5566 19.2549 53.2854C21.9636 51.8409 24.4321 49.9855 26.5726 47.7852L36.9682 37.13C38.5667 35.4884 40.4731 34.1779 42.5783 33.2735C44.6836 32.3691 46.9464 31.8884 49.2376 31.859C51.5287 31.8296 53.8031 32.252 55.9309 33.1021C58.0587 33.9522 59.9981 35.2133 61.6382 36.8134L51.1287 26.5603C48.8871 24.3814 47.0032 21.8627 45.5462 19.0969C38.7449 19.9735 32.4411 23.1276 27.6619 28.0454L-0.000408173 56.3948Z" fill="url(#paint2_linear)"/>
<path d="M62.1354 61.2935L72.3346 50.8441C74.4757 48.6435 76.9441 46.7872 79.6523 45.3408C78.781 38.6296 75.6889 32.403 70.8685 27.6528L42.5191 0C42.2315 1.75926 42.0991 3.54039 42.1233 5.32284C42.1537 10.124 43.3271 14.8489 45.5462 19.1065C47.0033 21.8722 48.8872 24.391 51.1287 26.5699L61.6383 36.8229C64.9163 40.0202 66.8057 44.3782 66.8988 48.9564C66.9918 53.5345 65.2809 57.9657 62.1354 61.2935Z" fill="url(#paint3_linear)"/>
<defs>
<linearGradient id="paint0_linear" x1="101.686" y1="29.8829" x2="54.2944" y2="62.0732" gradientUnits="userSpaceOnUse">
<stop stop-color="#C906F9"/>
<stop offset="0.448312" stop-color="#A803FC"/>
<stop offset="0.862484" stop-color="#8700FF"/>
</linearGradient>
<linearGradient id="paint1_linear" x1="25.4176" y1="48.6584" x2="13.8942" y2="92.108" gradientUnits="userSpaceOnUse">
<stop stop-color="#0044FF"/>
<stop offset="0.489583" stop-color="#0087FF"/>
<stop offset="1" stop-color="#00CAFF"/>
</linearGradient>
<linearGradient id="paint2_linear" x1="-0.107811" y1="57.7371" x2="23.4787" y2="64.9043" gradientUnits="userSpaceOnUse">
<stop stop-color="#B0FF33"/>
<stop offset="0.494792" stop-color="#55DF20"/>
<stop offset="1" stop-color="#0AC222"/>
</linearGradient>
<linearGradient id="paint3_linear" x1="42.236" y1="60.9407" x2="82.1273" y2="51.4663" gradientUnits="userSpaceOnUse">
<stop stop-color="#FF8100"/>
<stop offset="0.0001" stop-color="#FF8100"/>
<stop offset="0.5" stop-color="#FF5D00"/>
<stop offset="1" stop-color="#FF3600"/>
</linearGradient>
<clipPath id="clip0">
<rect width="313" height="99.1683" fill="white"/>
</clipPath>
</defs>
</svg>